<svg width="48" height="48" viewBox="0 0 48 48" fill="none" xmlns="http://www.w3.org/2000/svg">
<g filter="url(#filter0_b_4553_10511)">
<rect width="48" height="48" rx="24" fill="black" fill-opacity="0.15"/>
<path fill-rule="evenodd" clip-rule="evenodd" d="M20.9283 14C19.2231 13.9999 17.7678 15.2326 17.4873 16.9145L17.2787 18.1649C15.4498 18.2733 14 19.7909 14 21.6471V29.58C14 31.5067 15.5619 33.0685 17.4886 33.0684L30.5118 33.0676C32.4383 33.0675 34 31.5058 34 29.5793V21.6471C34 19.7997 32.5639 18.2876 30.7471 18.1665L30.5479 16.9327C30.275 15.2427 28.8161 14.0005 27.1043 14.0004L20.9283 14ZM28.1763 25.2796C28.39 25.6002 28.8232 25.6868 29.1438 25.4731C29.4644 25.2593 29.551 24.8262 29.3373 24.5056L28.0554 22.5827C27.7424 22.1132 27.0525 22.1132 26.7396 22.5827L25.4577 24.5056C25.2439 24.8262 25.3306 25.2593 25.6512 25.4731C25.9718 25.6868 26.4049 25.6002 26.6187 25.2796L26.6835 25.1823C26.6576 25.3165 26.6215 25.4524 26.5719 25.5887C26.4448 25.9384 26.233 26.2504 25.8721 26.4835C25.5044 26.721 24.9241 26.9135 23.9993 26.9135C23.614 26.9135 23.3016 27.2259 23.3016 27.6112C23.3016 27.9965 23.614 28.3089 23.9993 28.3089C25.1134 28.3089 25.9774 28.0766 26.6291 27.6557C27.2877 27.2303 27.6706 26.6503 27.8833 26.0655C27.9918 25.7671 28.0567 25.4551 28.0939 25.1559L28.1763 25.2796ZM21.3797 25.1852L21.3769 25.1894C21.4006 25.0856 21.4308 24.9809 21.4689 24.8761C21.5961 24.5264 21.8079 24.2143 22.1688 23.9812C22.5365 23.7438 23.1167 23.5512 24.0415 23.5512C24.4269 23.5512 24.7392 23.2389 24.7392 22.8536C24.7392 22.4682 24.4269 22.1559 24.0415 22.1559C22.9274 22.1559 22.0635 22.3882 21.4117 22.8091C20.7532 23.2344 20.3703 23.8144 20.1576 24.3992C20.0425 24.7157 19.9764 25.0474 19.9406 25.3629L19.8221 25.1852C19.6084 24.8646 19.1752 24.778 18.8546 24.9917C18.534 25.2054 18.4474 25.6386 18.6611 25.9592L19.943 27.8821C20.256 28.3515 20.9458 28.3515 21.2588 27.8821L22.5407 25.9592C22.7545 25.6386 22.6678 25.2054 22.3472 24.9917C22.0266 24.778 21.5935 24.8646 21.3797 25.1852Z" fill="white"/>
<rect x="0.5" y="0.5" width="47" height="47" rx="23.5" stroke="white" stroke-opacity="0.1"/>
</g>
<defs>
<filter id="filter0_b_4553_10511" x="-12" y="-12" width="72" height="72" filterUnits="userSpaceOnUse" color-interpolation-filters="sRGB">
<feFlood flood-opacity="0" result="BackgroundImageFix"/>
<feGaussianBlur in="BackgroundImage" stdDeviation="6"/>
<feComposite in2="SourceAlpha" operator="in" result="effect1_backgroundBlur_4553_10511"/>
<feBlend mode="normal" in="SourceGraphic" in2="effect1_backgroundBlur_4553_10511" result="shape"/>
</filter>
</defs>
</svg>
