<svg width="48" height="48" viewBox="0 0 48 48" fill="none" xmlns="http://www.w3.org/2000/svg">
<rect width="48" height="48" rx="24" fill="white"/>
<path d="M26.7892 16.9451C27.5597 16.0984 28.0825 14.9617 27.9446 13.8C26.8167 13.8493 25.4403 14.4537 24.6435 15.301C23.928 16.0266 23.2947 17.211 23.4598 18.3239C24.7259 18.4204 25.9909 17.7679 26.7892 16.9451Z" fill="#121212"/>
<path d="M28.1367 18.3404C26.4168 18.2378 24.9545 19.3173 24.1332 19.3173C23.3114 19.3173 22.0536 18.392 20.6933 18.417C18.9227 18.443 17.2798 19.4449 16.3813 21.0384C14.5333 24.2261 15.8936 28.9547 17.6908 31.5509C18.5635 32.8354 19.6153 34.2496 21.0011 34.1988C22.3106 34.1474 22.8238 33.3503 24.4155 33.3503C26.006 33.3503 26.4683 34.1988 27.8544 34.1731C29.2918 34.1474 30.1905 32.888 31.0632 31.6023C32.0644 30.1381 32.4742 28.7243 32.5 28.6467C32.4742 28.621 29.7282 27.5668 29.7028 24.4055C29.6768 21.7585 31.8587 20.4995 31.9614 20.4214C30.7293 18.5977 28.8041 18.392 28.1367 18.3404Z" fill="#121212"/>
</svg>
