<svg width="24" height="24" viewBox="0 0 24 24" fill="none" xmlns="http://www.w3.org/2000/svg">
<path d="M12.0034 2C10.2684 1.99942 8.56322 2.45021 7.05525 3.30808C5.54727 4.16595 4.28843 5.40139 3.40241 6.893C2.51639 8.38461 2.03367 10.0811 2.0017 11.8157C1.96972 13.5503 2.38959 15.2634 3.22003 16.7867L2.0367 20.9367C1.99506 21.0824 1.99395 21.2367 2.03349 21.383C2.07303 21.5293 2.15172 21.6621 2.26109 21.767C2.37046 21.8719 2.50638 21.945 2.6542 21.9784C2.80203 22.0119 2.95617 22.0043 3.10003 21.9567L6.99669 20.6583C8.32479 21.4258 9.81164 21.8774 11.3422 21.9783C12.8728 22.0792 14.4061 21.8267 15.8234 21.2402C17.2408 20.6537 18.5042 19.7491 19.516 18.5962C20.5278 17.4433 21.2608 16.0731 21.6583 14.5917C22.0559 13.1102 22.1073 11.5571 21.8085 10.0526C21.5098 8.54803 20.869 7.13238 19.9356 5.91514C19.0023 4.69789 17.8014 3.71167 16.4259 3.03278C15.0505 2.35389 13.5373 2.00051 12.0034 2V2ZM8.67003 10.3333C8.67003 10.1123 8.75782 9.90036 8.9141 9.74408C9.07038 9.5878 9.28235 9.5 9.50336 9.5H14.5034C14.7244 9.5 14.9363 9.5878 15.0926 9.74408C15.2489 9.90036 15.3367 10.1123 15.3367 10.3333C15.3367 10.5543 15.2489 10.7663 15.0926 10.9226C14.9363 11.0789 14.7244 11.1667 14.5034 11.1667H9.50336C9.28235 11.1667 9.07038 11.0789 8.9141 10.9226C8.75782 10.7663 8.67003 10.5543 8.67003 10.3333ZM9.50336 12.8333H12.8367C13.0577 12.8333 13.2697 12.9211 13.4259 13.0774C13.5822 13.2337 13.67 13.4457 13.67 13.6667C13.67 13.8877 13.5822 14.0996 13.4259 14.2559C13.2697 14.4122 13.0577 14.5 12.8367 14.5H9.50336C9.28235 14.5 9.07038 14.4122 8.9141 14.2559C8.75782 14.0996 8.67003 13.8877 8.67003 13.6667C8.67003 13.4457 8.75782 13.2337 8.9141 13.0774C9.07038 12.9211 9.28235 12.8333 9.50336 12.8333V12.8333Z" fill="white"/>
</svg>
