<svg width="24" height="24" viewBox="0 0 24 24" fill="none" xmlns="http://www.w3.org/2000/svg">
<g id="Light/Delete">
<g id="Delete">
<path id="Stroke 1" d="M19.3248 9.46826C19.3248 9.46826 18.7818 16.2033 18.4668 19.0403C18.3168 20.3953 17.4798 21.1893 16.1088 21.2143C13.4998 21.2613 10.8878 21.2643 8.27979 21.2093C6.96079 21.1823 6.13779 20.3783 5.99079 19.0473C5.67379 16.1853 5.13379 9.46826 5.13379 9.46826" stroke="#EB5757" stroke-width="2" stroke-linecap="round" stroke-linejoin="round"/>
<path id="Stroke 3" d="M20.708 6.23975H3.75" stroke="#EB5757" stroke-width="2" stroke-linecap="round" stroke-linejoin="round"/>
<path id="Stroke 5" d="M17.4403 6.23998C16.6553 6.23998 15.9793 5.68498 15.8253 4.91598L15.5823 3.69998C15.4323 3.13898 14.9243 2.75098 14.3453 2.75098H10.1123C9.53333 2.75098 9.02533 3.13898 8.87533 3.69998L8.63233 4.91598C8.47833 5.68498 7.80233 6.23998 7.01733 6.23998" stroke="#EB5757" stroke-width="2" stroke-linecap="round" stroke-linejoin="round"/>
</g>
</g>
</svg>
