<svg width="24" height="24" viewBox="0 0 24 24" fill="none" xmlns="http://www.w3.org/2000/svg">
<path fill-rule="evenodd" clip-rule="evenodd" d="M3.42204 8.74935C2.76535 9.29735 2.38574 10.1085 2.38574 10.9639V18.6157C2.38574 20.2087 3.67708 21.5 5.27003 21.5H18.73C20.323 21.5 21.6143 20.2087 21.6143 18.6157V10.9336C21.6143 10.0957 21.25 9.29924 20.6161 8.75136L14.3308 3.31911C13.0839 2.2414 11.2399 2.22544 9.97446 3.28141L3.42204 8.74935ZM12 13.9294C11.4691 13.9294 11.0386 14.3598 11.0386 14.8908V17.7751C11.0386 18.3061 11.4691 18.7365 12 18.7365C12.531 18.7365 12.9615 18.3061 12.9615 17.7751V14.8908C12.9615 14.3598 12.531 13.9294 12 13.9294Z" fill="white"/>
</svg>
