<svg width="26" height="31" viewBox="0 0 26 31" fill="none" xmlns="http://www.w3.org/2000/svg">
<mask id="path-1-inside-1_1_2895" fill="white">
<path fill-rule="evenodd" clip-rule="evenodd" d="M16.3724 25.611C21.9172 24.1258 26 19.0661 26 13.0527C26 5.87303 20.1797 0.0527344 13 0.0527344C5.8203 0.0527344 0 5.87303 0 13.0527C0 19.2935 4.39751 24.5072 10.2629 25.7641L13.2735 30.9785L16.3724 25.611Z"/>
</mask>
<path fill-rule="evenodd" clip-rule="evenodd" d="M16.3724 25.611C21.9172 24.1258 26 19.0661 26 13.0527C26 5.87303 20.1797 0.0527344 13 0.0527344C5.8203 0.0527344 0 5.87303 0 13.0527C0 19.2935 4.39751 24.5072 10.2629 25.7641L13.2735 30.9785L16.3724 25.611Z" fill="#ECECEC"/>
<path d="M16.3724 25.611L16.2057 24.9887L15.9478 25.0577L15.8144 25.2889L16.3724 25.611ZM10.2629 25.7641L10.8209 25.4419L10.6778 25.1941L10.3979 25.1341L10.2629 25.7641ZM13.2735 30.9785L12.7155 31.3007L13.2735 32.2671L13.8314 31.3007L13.2735 30.9785ZM25.3557 13.0527C25.3557 18.7671 21.4759 23.577 16.2057 24.9887L16.5391 26.2334C22.3585 24.6746 26.6443 19.365 26.6443 13.0527H25.3557ZM13 0.697033C19.8239 0.697033 25.3557 6.22887 25.3557 13.0527H26.6443C26.6443 5.5172 20.5355 -0.591564 13 -0.591564V0.697033ZM0.644298 13.0527C0.644298 6.22887 6.17613 0.697033 13 0.697033V-0.591564C5.46446 -0.591564 -0.644298 5.5172 -0.644298 13.0527H0.644298ZM10.3979 25.1341C4.82341 23.9395 0.644298 18.9834 0.644298 13.0527H-0.644298C-0.644298 19.6036 3.97162 25.0748 10.1279 26.3941L10.3979 25.1341ZM13.8314 30.6564L10.8209 25.4419L9.70492 26.0862L12.7155 31.3007L13.8314 30.6564ZM15.8144 25.2889L12.7155 30.6564L13.8314 31.3007L16.9303 25.9332L15.8144 25.2889Z" fill="#838585" mask="url(#path-1-inside-1_1_2895)"/>
<circle cx="12.7912" cy="13.2615" r="5.79868" fill="#ECECEC" stroke="#838585" stroke-width="0.644298"/>
</svg>
