<svg width="24" height="24" viewBox="0 0 24 24" fill="none" xmlns="http://www.w3.org/2000/svg">
<g id="Light/Star">
<g id="Star">
<path id="Stroke 1" fill-rule="evenodd" clip-rule="evenodd" d="M13.227 3.30777L15.2574 7.36416C15.4564 7.76238 15.8405 8.03851 16.2859 8.10241L20.8282 8.75623C21.9504 8.91825 22.397 10.2784 21.5848 11.0577L18.3002 14.2138C17.9774 14.5242 17.8305 14.9703 17.9068 15.4085L18.682 19.8642C18.8729 20.9665 17.6997 21.8074 16.6967 21.286L12.6369 19.1807C12.2389 18.9742 11.7622 18.9742 11.3631 19.1807L7.30334 21.286C6.30026 21.8074 5.1271 20.9665 5.31916 19.8642L6.09316 15.4085C6.16952 14.9703 6.02259 14.5242 5.6998 14.2138L2.4152 11.0577C1.60302 10.2784 2.0496 8.91825 3.17185 8.75623L7.71406 8.10241C8.15949 8.03851 8.54475 7.76238 8.74375 7.36416L10.773 3.30777C11.2752 2.3048 12.7248 2.3048 13.227 3.30777Z" stroke="white" stroke-width="2" stroke-linecap="round" stroke-linejoin="round"/>
</g>
</g>
</svg>
